# xmcd
# 
# Track frame offsets:
#     150
#     23082
#     50587
#     65385
#     87070
#     105465
#     122457
#     148480
# 
# Disc length: 2264
# 
# Revision: 22
# Processed by: cddbd v1.5.2PL0 Copyright (c) Steve Scherf et al.
# Submitted via: fre:ac v1.1beta1pre4
# 
DISCID=6608d608
DTITLE=Mike Oldfield - Platinum
DYEAR=1979
DGENRE=Progressive Rock
TTITLE0=Platinum - Part 1 - Airborne
TTITLE1=Platinum - Part 2 - Platinum
TTITLE2=Platinum - Part 3 - Charleston
TTITLE3=Platinum - Part 4 - North Star - Platinum Finale
TTITLE4=Woodhenge
TTITLE5=Sally
TTITLE6=Punkadiddle
TTITLE7=I got rhythm
EXTD=AVM YEAR: 1979
EXTT0=6º Álbum de Mike Oldfield
EXTT1=6º Álbum de Mike Oldfield
EXTT2=6º Álbum de Mike Oldfield
EXTT3=6º Álbum de Mike Oldfield
EXTT4=6º Álbum de Mike Oldfield
EXTT5=6º Álbum de Mike Oldfield
EXTT6=6º Álbum de Mike Oldfield
EXTT7=6º Álbum de Mike Oldfield
PLAYORDER=
